<svg version="1.0" xmlns="http://www.w3.org/2000/svg"
 width="150" height="150" viewBox="0 0 596.000000 418.000000" >

<g transform="translate(0.000000,418.000000) scale(0.100000,-0.100000)"
fill="#ffffff" stroke="none">
<path d="M640 1870 l0 -990 275 0 275 0 0 707 0 706 -57 61 c-32 34 -155 161
-275 283 l-218 223 0 -990z"/>
<path d="M652 3568 c3 -6 253 -263 1208 -1243 113 -115 208 -211 211 -213 3
-1 91 85 194 193 l188 196 -29 31 c-16 18 -207 215 -424 438 -218 223 -439
449 -491 503 l-94 99 -383 1 c-210 1 -381 -1 -380 -5z"/>
<path d="M2960 2228 l0 -1348 275 0 275 0 -2 1345 -3 1346 -273 2 -272 2 0
-1347z"/>
<path d="M4891 3532 c-119 -123 -712 -731 -1005 -1030 -193 -196 -208 -214
-190 -226 10 -7 264 -145 563 -307 568 -307 616 -337 669 -428 25 -42 27 -55
27 -146 0 -115 -14 -151 -86 -222 -84 -84 -100 -88 -386 -91 l-253 -3 0 -100
0 -99 310 0 c355 0 416 8 545 69 179 84 309 243 360 436 22 86 20 232 -4 328
-39 151 -138 294 -260 376 -31 20 -251 143 -488 272 -238 129 -432 237 -430
241 1 3 171 179 377 390 520 531 560 573 560 581 0 4 -59 7 -131 7 l-132 0
-46 -48z"/>
</g>
</svg>
